<svg xmlns="http://www.w3.org/2000/svg" xmlns:xlink="http://www.w3.org/1999/xlink" width="1000" zoomAndPan="magnify" viewBox="0 0 750 749.999995" height="1000" preserveAspectRatio="xMidYMid meet" version="1.0"><defs><g/></defs><path fill="#00bf63" d="M 375 68.453125 C 381.515625 68.453125 388.023438 68.664062 394.523438 69.082031 C 401.023438 69.503906 407.507812 70.132812 413.96875 70.96875 C 420.425781 71.808594 426.855469 72.851562 433.246094 74.105469 C 439.640625 75.359375 445.988281 76.816406 452.285156 78.476562 C 458.585938 80.140625 464.824219 82.003906 471.003906 84.070312 C 477.183594 86.132812 483.289062 88.394531 489.320312 90.855469 C 495.355469 93.3125 501.300781 95.964844 507.164062 98.804688 C 513.027344 101.648438 518.789062 104.675781 524.457031 107.890625 C 530.125 111.105469 535.679688 114.5 541.128906 118.070312 C 546.578125 121.644531 551.902344 125.390625 557.109375 129.304688 C 562.316406 133.222656 567.390625 137.304688 572.332031 141.546875 C 577.273438 145.792969 582.074219 150.191406 586.734375 154.746094 C 591.394531 159.296875 595.902344 163.996094 600.257812 168.84375 C 604.613281 173.6875 608.808594 178.667969 612.839844 183.78125 C 616.875 188.898438 620.742188 194.136719 624.4375 199.503906 C 628.132812 204.867188 631.652344 210.34375 634.996094 215.9375 C 638.339844 221.527344 641.5 227.222656 644.472656 233.019531 C 647.449219 238.8125 650.234375 244.699219 652.832031 250.675781 C 655.425781 256.648438 657.828125 262.703125 660.03125 268.832031 C 662.238281 274.964844 664.242188 281.15625 666.046875 287.417969 C 667.851562 293.675781 669.457031 299.988281 670.855469 306.351562 C 672.25 312.714844 673.445312 319.117188 674.429688 325.554688 C 675.414062 331.996094 676.191406 338.460938 676.757812 344.949219 C 677.328125 351.441406 677.683594 357.941406 677.832031 364.457031 C 677.984375 370.96875 677.921875 377.480469 677.648438 383.988281 C 677.378906 390.5 676.898438 396.992188 676.207031 403.46875 C 675.515625 409.949219 674.617188 416.398438 673.511719 422.816406 C 672.40625 429.238281 671.09375 435.617188 669.574219 441.949219 C 668.054688 448.285156 666.335938 454.566406 664.410156 460.789062 C 662.488281 467.015625 660.367188 473.171875 658.046875 479.257812 C 655.726562 485.347656 653.210938 491.351562 650.503906 497.277344 C 647.796875 503.203125 644.898438 509.035156 641.816406 514.773438 C 638.730469 520.511719 635.464844 526.144531 632.015625 531.671875 C 628.570312 537.199219 624.945312 542.613281 621.148438 547.90625 C 617.351562 553.199219 613.390625 558.367188 609.257812 563.402344 C 605.128906 568.441406 600.839844 573.34375 596.394531 578.101562 C 591.949219 582.863281 587.351562 587.476562 582.609375 591.945312 C 577.863281 596.410156 572.980469 600.714844 567.960938 604.867188 C 562.9375 609.015625 557.785156 613 552.507812 616.816406 C 547.230469 620.636719 541.832031 624.277344 536.320312 627.75 C 530.804688 631.21875 525.183594 634.507812 519.457031 637.613281 C 513.730469 640.71875 507.910156 643.640625 501.996094 646.371094 C 496.082031 649.101562 490.085938 651.640625 484.007812 653.984375 C 477.929688 656.328125 471.78125 658.476562 465.5625 660.421875 C 459.347656 662.371094 453.074219 664.117188 446.746094 665.660156 C 440.414062 667.203125 434.042969 668.539062 427.628906 669.671875 C 421.210938 670.804688 414.765625 671.726562 408.289062 672.441406 C 401.816406 673.160156 395.324219 673.664062 388.816406 673.960938 C 382.308594 674.257812 375.796875 674.347656 369.28125 674.222656 C 362.769531 674.101562 356.265625 673.769531 349.773438 673.226562 C 343.28125 672.683594 336.8125 671.933594 330.371094 670.972656 C 323.925781 670.011719 317.519531 668.84375 311.152344 667.472656 C 304.785156 666.097656 298.464844 664.523438 292.199219 662.742188 C 285.933594 660.960938 279.730469 658.980469 273.589844 656.796875 C 267.453125 654.617188 261.390625 652.242188 255.402344 649.667969 C 249.417969 647.097656 243.523438 644.335938 237.714844 641.382812 C 231.90625 638.429688 226.203125 635.292969 220.597656 631.972656 C 214.992188 628.652344 209.5 625.152344 204.121094 621.476562 C 198.742188 617.800781 193.484375 613.957031 188.355469 609.945312 C 183.222656 605.929688 178.226562 601.753906 173.367188 597.417969 C 168.503906 593.082031 163.785156 588.59375 159.214844 583.949219 C 154.640625 579.308594 150.222656 574.527344 145.960938 569.601562 C 141.699219 564.675781 137.597656 559.617188 133.660156 554.425781 C 129.722656 549.234375 125.957031 543.921875 122.363281 538.488281 C 118.769531 533.054688 115.351562 527.511719 112.117188 521.859375 C 108.878906 516.203125 105.828125 510.453125 102.960938 504.601562 C 100.097656 498.75 97.421875 492.8125 94.941406 486.789062 C 92.457031 480.765625 90.171875 474.671875 88.082031 468.5 C 85.996094 462.328125 84.105469 456.097656 82.417969 449.804688 C 80.730469 443.511719 79.25 437.171875 77.972656 430.78125 C 76.695312 424.394531 75.625 417.972656 74.757812 411.515625 C 73.894531 405.058594 73.242188 398.578125 72.796875 392.078125 C 72.351562 385.578125 72.113281 379.074219 72.089844 372.558594 C 72.0625 366.042969 72.25 359.535156 72.640625 353.03125 C 73.035156 346.527344 73.640625 340.046875 74.453125 333.582031 C 75.265625 327.117188 76.285156 320.6875 77.511719 314.289062 C 78.742188 307.890625 80.171875 301.539062 81.8125 295.230469 C 83.449219 288.925781 85.285156 282.679688 87.328125 276.492188 C 89.367188 270.304688 91.605469 264.191406 94.039062 258.148438 C 96.476562 252.105469 99.101562 246.148438 101.921875 240.273438 C 104.742188 234.402344 107.746094 228.625 110.9375 222.945312 C 114.132812 217.265625 117.503906 211.695312 121.054688 206.234375 C 124.605469 200.773438 128.328125 195.433594 132.226562 190.210938 C 136.121094 184.988281 140.183594 179.898438 144.40625 174.9375 C 148.632812 169.980469 153.011719 165.160156 157.546875 160.484375 C 162.082031 155.808594 166.765625 151.28125 171.589844 146.90625 C 176.417969 142.53125 181.382812 138.316406 186.480469 134.265625 C 191.582031 130.210938 196.804688 126.324219 202.15625 122.605469 C 207.507812 118.886719 212.96875 115.347656 218.550781 111.984375 C 224.128906 108.617188 229.808594 105.4375 235.59375 102.4375 C 241.375 99.441406 247.25 96.632812 253.214844 94.011719 C 259.179688 91.390625 265.226562 88.96875 271.347656 86.738281 C 277.46875 84.507812 283.65625 82.480469 289.90625 80.648438 C 296.160156 78.820312 302.464844 77.191406 308.820312 75.769531 C 315.179688 74.347656 321.578125 73.128906 328.011719 72.117188 C 334.449219 71.109375 340.910156 70.304688 347.398438 69.710938 L 361.199219 220.539062 C 357.953125 220.835938 354.722656 221.238281 351.507812 221.742188 C 348.289062 222.246094 345.089844 222.855469 341.910156 223.566406 C 338.730469 224.277344 335.578125 225.09375 332.453125 226.007812 C 329.328125 226.921875 326.234375 227.9375 323.171875 229.050781 C 320.113281 230.167969 317.089844 231.378906 314.109375 232.6875 C 311.125 233.996094 308.1875 235.402344 305.296875 236.902344 C 302.40625 238.402344 299.5625 239.992188 296.773438 241.675781 C 293.984375 243.355469 291.253906 245.125 288.578125 246.984375 C 285.902344 248.84375 283.289062 250.789062 280.742188 252.8125 C 278.191406 254.839844 275.710938 256.949219 273.296875 259.136719 C 270.882812 261.324219 268.542969 263.585938 266.273438 265.925781 C 264.003906 268.261719 261.816406 270.671875 259.703125 273.152344 C 257.589844 275.632812 255.5625 278.175781 253.613281 280.789062 C 251.664062 283.398438 249.804688 286.070312 248.027344 288.800781 C 246.25 291.53125 244.566406 294.316406 242.96875 297.15625 C 241.375 299.996094 239.871094 302.882812 238.460938 305.820312 C 237.050781 308.757812 235.738281 311.734375 234.519531 314.757812 C 233.304688 317.777344 232.183594 320.835938 231.164062 323.929688 C 230.144531 327.023438 229.222656 330.144531 228.40625 333.296875 C 227.585938 336.453125 226.871094 339.628906 226.257812 342.828125 C 225.644531 346.027344 225.132812 349.242188 224.726562 352.472656 C 224.320312 355.707031 224.019531 358.945312 223.820312 362.199219 C 223.625 365.449219 223.53125 368.703125 223.542969 371.960938 C 223.558594 375.21875 223.675781 378.472656 223.898438 381.722656 C 224.121094 384.972656 224.449219 388.210938 224.878906 391.441406 C 225.3125 394.667969 225.847656 397.878906 226.484375 401.074219 C 227.125 404.269531 227.867188 407.4375 228.710938 410.585938 C 229.554688 413.730469 230.496094 416.847656 231.542969 419.933594 C 232.585938 423.019531 233.730469 426.066406 234.96875 429.078125 C 236.210938 432.089844 237.546875 435.058594 238.980469 437.984375 C 240.414062 440.910156 241.941406 443.785156 243.558594 446.613281 C 245.175781 449.4375 246.882812 452.210938 248.679688 454.925781 C 250.480469 457.644531 252.363281 460.300781 254.332031 462.894531 C 256.296875 465.492188 258.347656 468.019531 260.480469 470.484375 C 262.613281 472.945312 264.820312 475.335938 267.105469 477.65625 C 269.394531 479.980469 271.75 482.222656 274.183594 484.390625 C 276.613281 486.558594 279.113281 488.648438 281.675781 490.65625 C 284.242188 492.660156 286.871094 494.582031 289.558594 496.421875 C 292.25 498.257812 294.996094 500.007812 297.796875 501.667969 C 300.601562 503.328125 303.453125 504.898438 306.359375 506.375 C 309.261719 507.851562 312.210938 509.230469 315.203125 510.515625 C 318.195312 511.804688 321.226562 512.992188 324.296875 514.082031 C 327.363281 515.171875 330.464844 516.164062 333.601562 517.054688 C 336.734375 517.945312 339.890625 518.730469 343.074219 519.417969 C 346.261719 520.105469 349.464844 520.6875 352.683594 521.167969 C 355.90625 521.648438 359.140625 522.023438 362.386719 522.296875 C 365.632812 522.566406 368.882812 522.734375 372.140625 522.792969 C 375.398438 522.855469 378.652344 522.8125 381.90625 522.664062 C 385.160156 522.515625 388.40625 522.261719 391.644531 521.902344 C 394.882812 521.546875 398.105469 521.085938 401.3125 520.519531 C 404.519531 519.953125 407.707031 519.285156 410.871094 518.511719 C 414.039062 517.742188 417.171875 516.867188 420.28125 515.894531 C 423.390625 514.921875 426.464844 513.847656 429.503906 512.675781 C 432.542969 511.503906 435.539062 510.234375 438.5 508.867188 C 441.457031 507.503906 444.367188 506.042969 447.230469 504.488281 C 450.09375 502.9375 452.902344 501.292969 455.660156 499.558594 C 458.417969 497.820312 461.113281 496 463.753906 494.089844 C 466.394531 492.183594 468.96875 490.191406 471.480469 488.117188 C 473.992188 486.039062 476.433594 483.886719 478.804688 481.65625 C 481.175781 479.421875 483.472656 477.113281 485.695312 474.734375 C 487.921875 472.351562 490.0625 469.902344 492.128906 467.382812 C 494.195312 464.867188 496.175781 462.28125 498.074219 459.636719 C 499.972656 456.988281 501.785156 454.28125 503.507812 451.519531 C 505.230469 448.753906 506.867188 445.9375 508.40625 443.070312 C 509.949219 440.199219 511.398438 437.285156 512.75 434.320312 C 514.105469 431.359375 515.363281 428.355469 516.523438 425.3125 C 517.683594 422.269531 518.746094 419.191406 519.707031 416.078125 C 520.667969 412.964844 521.527344 409.824219 522.285156 406.65625 C 523.046875 403.488281 523.703125 400.300781 524.253906 397.089844 C 524.808594 393.882812 525.257812 390.65625 525.601562 387.417969 C 525.949219 384.179688 526.1875 380.929688 526.324219 377.675781 C 526.460938 374.421875 526.492188 371.167969 526.417969 367.910156 C 526.34375 364.652344 526.164062 361.402344 525.878906 358.15625 C 525.59375 354.914062 525.207031 351.679688 524.714844 348.460938 C 524.222656 345.242188 523.625 342.039062 522.925781 338.859375 C 522.226562 335.675781 521.425781 332.519531 520.523438 329.390625 C 519.621094 326.261719 518.617188 323.164062 517.515625 320.097656 C 516.414062 317.035156 515.214844 314.007812 513.914062 311.019531 C 512.617188 308.03125 511.226562 305.089844 509.738281 302.191406 C 508.25 299.292969 506.667969 296.445312 505 293.652344 C 503.328125 290.855469 501.566406 288.117188 499.71875 285.433594 C 497.871094 282.75 495.9375 280.132812 493.921875 277.574219 C 491.902344 275.015625 489.804688 272.527344 487.628906 270.105469 C 485.449219 267.679688 483.195312 265.332031 480.867188 263.054688 C 478.539062 260.777344 476.136719 258.578125 473.667969 256.457031 C 471.195312 254.335938 468.65625 252.292969 466.054688 250.335938 C 463.453125 248.378906 460.789062 246.503906 458.0625 244.71875 C 455.339844 242.933594 452.5625 241.234375 449.730469 239.628906 C 446.894531 238.019531 444.011719 236.507812 441.082031 235.085938 C 438.152344 233.664062 435.175781 232.339844 432.160156 231.109375 C 429.144531 229.878906 426.089844 228.75 423 227.714844 C 419.914062 226.683594 416.792969 225.753906 413.644531 224.921875 C 410.492188 224.089844 407.320312 223.363281 404.125 222.734375 C 400.925781 222.109375 397.714844 221.585938 394.484375 221.167969 C 391.253906 220.75 388.011719 220.433594 384.761719 220.222656 C 381.511719 220.015625 378.257812 219.910156 375 219.910156 Z M 375 68.453125 " fill-opacity="1" fill-rule="nonzero"/><path fill="#ffde59" d="M 347.398438 69.710938 C 356.570312 68.875 365.761719 68.453125 374.96875 68.453125 L 374.984375 219.910156 C 370.378906 219.910156 365.785156 220.121094 361.199219 220.539062 Z M 347.398438 69.710938 " fill-opacity="1" fill-rule="nonzero"/><g fill="#000000" fill-opacity="1"><g transform="translate(356.522307, 705.263285)"><g><path d="M 11.96875 -4.546875 C 11.96875 -3.035156 11.421875 -1.859375 10.328125 -1.015625 C 9.242188 -0.179688 7.769531 0.234375 5.90625 0.234375 C 3.882812 0.234375 2.328125 -0.0234375 1.234375 -0.546875 L 1.234375 -2.46875 C 1.929688 -2.164062 2.691406 -1.925781 3.515625 -1.75 C 4.347656 -1.582031 5.171875 -1.5 5.984375 -1.5 C 7.304688 -1.5 8.300781 -1.75 8.96875 -2.25 C 9.632812 -2.757812 9.96875 -3.460938 9.96875 -4.359375 C 9.96875 -4.941406 9.847656 -5.421875 9.609375 -5.796875 C 9.367188 -6.179688 8.972656 -6.53125 8.421875 -6.84375 C 7.867188 -7.164062 7.023438 -7.53125 5.890625 -7.9375 C 4.296875 -8.507812 3.15625 -9.179688 2.46875 -9.953125 C 1.789062 -10.734375 1.453125 -11.75 1.453125 -13 C 1.453125 -14.3125 1.945312 -15.359375 2.9375 -16.140625 C 3.925781 -16.921875 5.234375 -17.3125 6.859375 -17.3125 C 8.554688 -17.3125 10.117188 -17 11.546875 -16.375 L 10.921875 -14.65625 C 9.515625 -15.238281 8.144531 -15.53125 6.8125 -15.53125 C 5.757812 -15.53125 4.9375 -15.304688 4.34375 -14.859375 C 3.757812 -14.410156 3.46875 -13.785156 3.46875 -12.984375 C 3.46875 -12.390625 3.578125 -11.898438 3.796875 -11.515625 C 4.015625 -11.140625 4.378906 -10.796875 4.890625 -10.484375 C 5.410156 -10.171875 6.203125 -9.820312 7.265625 -9.4375 C 9.054688 -8.800781 10.285156 -8.117188 10.953125 -7.390625 C 11.628906 -6.660156 11.96875 -5.710938 11.96875 -4.546875 Z M 11.96875 -4.546875 "/></g></g></g><g fill="#000000" fill-opacity="1"><g transform="translate(369.641969, 705.263285)"><g><path d="M 9.921875 0 L 9.53125 -1.828125 L 9.4375 -1.828125 C 8.800781 -1.023438 8.164062 -0.476562 7.53125 -0.1875 C 6.894531 0.09375 6.101562 0.234375 5.15625 0.234375 C 3.882812 0.234375 2.890625 -0.09375 2.171875 -0.75 C 1.453125 -1.40625 1.09375 -2.332031 1.09375 -3.53125 C 1.09375 -6.113281 3.160156 -7.46875 7.296875 -7.59375 L 9.46875 -7.671875 L 9.46875 -8.46875 C 9.46875 -9.46875 9.25 -10.207031 8.8125 -10.6875 C 8.382812 -11.164062 7.695312 -11.40625 6.75 -11.40625 C 5.675781 -11.40625 4.46875 -11.078125 3.125 -10.421875 L 2.53125 -11.90625 C 3.164062 -12.25 3.859375 -12.515625 4.609375 -12.703125 C 5.359375 -12.898438 6.109375 -13 6.859375 -13 C 8.390625 -13 9.519531 -12.660156 10.25 -11.984375 C 10.988281 -11.304688 11.359375 -10.222656 11.359375 -8.734375 L 11.359375 0 Z M 5.546875 -1.359375 C 6.753906 -1.359375 7.703125 -1.6875 8.390625 -2.34375 C 9.078125 -3.007812 9.421875 -3.941406 9.421875 -5.140625 L 9.421875 -6.296875 L 7.484375 -6.203125 C 5.941406 -6.148438 4.828125 -5.910156 4.140625 -5.484375 C 3.460938 -5.066406 3.125 -4.410156 3.125 -3.515625 C 3.125 -2.816406 3.335938 -2.28125 3.765625 -1.90625 C 4.191406 -1.539062 4.785156 -1.359375 5.546875 -1.359375 Z M 5.546875 -1.359375 "/></g></g></g><g fill="#000000" fill-opacity="1"><g transform="translate(382.936715, 705.263285)"><g><path d="M 3.984375 0 L 2.046875 0 L 2.046875 -18.15625 L 3.984375 -18.15625 Z M 3.984375 0 "/></g></g></g><g fill="#000000" fill-opacity="1"><g transform="translate(388.982965, 705.263285)"><g><path d="M 9.921875 0 L 9.53125 -1.828125 L 9.4375 -1.828125 C 8.800781 -1.023438 8.164062 -0.476562 7.53125 -0.1875 C 6.894531 0.09375 6.101562 0.234375 5.15625 0.234375 C 3.882812 0.234375 2.890625 -0.09375 2.171875 -0.75 C 1.453125 -1.40625 1.09375 -2.332031 1.09375 -3.53125 C 1.09375 -6.113281 3.160156 -7.46875 7.296875 -7.59375 L 9.46875 -7.671875 L 9.46875 -8.46875 C 9.46875 -9.46875 9.25 -10.207031 8.8125 -10.6875 C 8.382812 -11.164062 7.695312 -11.40625 6.75 -11.40625 C 5.675781 -11.40625 4.46875 -11.078125 3.125 -10.421875 L 2.53125 -11.90625 C 3.164062 -12.25 3.859375 -12.515625 4.609375 -12.703125 C 5.359375 -12.898438 6.109375 -13 6.859375 -13 C 8.390625 -13 9.519531 -12.660156 10.25 -11.984375 C 10.988281 -11.304688 11.359375 -10.222656 11.359375 -8.734375 L 11.359375 0 Z M 5.546875 -1.359375 C 6.753906 -1.359375 7.703125 -1.6875 8.390625 -2.34375 C 9.078125 -3.007812 9.421875 -3.941406 9.421875 -5.140625 L 9.421875 -6.296875 L 7.484375 -6.203125 C 5.941406 -6.148438 4.828125 -5.910156 4.140625 -5.484375 C 3.460938 -5.066406 3.125 -4.410156 3.125 -3.515625 C 3.125 -2.816406 3.335938 -2.28125 3.765625 -1.90625 C 4.191406 -1.539062 4.785156 -1.359375 5.546875 -1.359375 Z M 5.546875 -1.359375 "/></g></g></g><g fill="#000000" fill-opacity="1"><g transform="translate(402.277711, 705.263285)"><g><path d="M 7.890625 -13.03125 C 8.460938 -13.03125 8.972656 -12.984375 9.421875 -12.890625 L 9.15625 -11.09375 C 8.625 -11.207031 8.15625 -11.265625 7.75 -11.265625 C 6.71875 -11.265625 5.832031 -10.84375 5.09375 -10 C 4.351562 -9.164062 3.984375 -8.117188 3.984375 -6.859375 L 3.984375 0 L 2.046875 0 L 2.046875 -12.796875 L 3.65625 -12.796875 L 3.875 -10.421875 L 3.96875 -10.421875 C 4.445312 -11.253906 5.019531 -11.894531 5.6875 -12.34375 C 6.351562 -12.800781 7.085938 -13.03125 7.890625 -13.03125 Z M 7.890625 -13.03125 "/></g></g></g><g fill="#000000" fill-opacity="1"><g transform="translate(412.035752, 705.263285)"><g><path d="M 0.015625 -12.796875 L 2.09375 -12.796875 L 4.90625 -5.5 C 5.519531 -3.832031 5.898438 -2.628906 6.046875 -1.890625 L 6.140625 -1.890625 C 6.242188 -2.285156 6.457031 -2.960938 6.78125 -3.921875 C 7.101562 -4.890625 8.160156 -7.847656 9.953125 -12.796875 L 12.015625 -12.796875 L 6.53125 1.78125 C 5.976562 3.21875 5.335938 4.238281 4.609375 4.84375 C 3.890625 5.445312 3 5.75 1.9375 5.75 C 1.34375 5.75 0.757812 5.679688 0.1875 5.546875 L 0.1875 3.984375 C 0.613281 4.078125 1.09375 4.125 1.625 4.125 C 2.957031 4.125 3.90625 3.378906 4.46875 1.890625 L 5.1875 0.0625 Z M 0.015625 -12.796875 "/></g></g></g><g fill="#000000" fill-opacity="1"><g transform="translate(328.565984, 739.871067)"><g><path d="M 4.328125 -7.09375 L 4.328125 0 L 2.34375 0 L 2.34375 -17.0625 L 7.03125 -17.0625 C 9.125 -17.0625 10.671875 -16.660156 11.671875 -15.859375 C 12.671875 -15.054688 13.171875 -13.851562 13.171875 -12.25 C 13.171875 -9.988281 12.023438 -8.460938 9.734375 -7.671875 L 14.375 0 L 12.015625 0 L 7.890625 -7.09375 Z M 4.328125 -8.796875 L 7.046875 -8.796875 C 8.453125 -8.796875 9.476562 -9.070312 10.125 -9.625 C 10.78125 -10.1875 11.109375 -11.023438 11.109375 -12.140625 C 11.109375 -13.265625 10.773438 -14.078125 10.109375 -14.578125 C 9.441406 -15.078125 8.375 -15.328125 6.90625 -15.328125 L 4.328125 -15.328125 Z M 4.328125 -8.796875 "/></g></g></g><g fill="#000000" fill-opacity="1"><g transform="translate(343.343112, 739.871067)"><g><path d="M 12.09375 -5.234375 C 12.09375 -4.179688 11.695312 -3.3125 10.90625 -2.625 C 10.113281 -1.9375 9.003906 -1.5 7.578125 -1.3125 L 7.578125 1.390625 L 6.0625 1.390625 L 6.0625 -1.21875 C 5.195312 -1.21875 4.351562 -1.285156 3.53125 -1.421875 C 2.71875 -1.554688 2.050781 -1.742188 1.53125 -1.984375 L 1.53125 -3.8125 C 2.175781 -3.519531 2.921875 -3.28125 3.765625 -3.09375 C 4.609375 -2.914062 5.375 -2.828125 6.0625 -2.828125 L 6.0625 -7.96875 C 4.46875 -8.46875 3.347656 -9.050781 2.703125 -9.71875 C 2.066406 -10.394531 1.75 -11.257812 1.75 -12.3125 C 1.75 -13.332031 2.144531 -14.171875 2.9375 -14.828125 C 3.726562 -15.484375 4.769531 -15.878906 6.0625 -16.015625 L 6.0625 -18.140625 L 7.578125 -18.140625 L 7.578125 -16.03125 C 9.003906 -16 10.382812 -15.710938 11.71875 -15.171875 L 11.109375 -13.640625 C 9.953125 -14.097656 8.773438 -14.375 7.578125 -14.46875 L 7.578125 -9.390625 C 8.796875 -9.003906 9.707031 -8.625 10.3125 -8.25 C 10.925781 -7.882812 11.375 -7.460938 11.65625 -6.984375 C 11.945312 -6.503906 12.09375 -5.921875 12.09375 -5.234375 Z M 10.109375 -5.09375 C 10.109375 -5.65625 9.929688 -6.109375 9.578125 -6.453125 C 9.234375 -6.796875 8.566406 -7.140625 7.578125 -7.484375 L 7.578125 -2.9375 C 9.265625 -3.175781 10.109375 -3.894531 10.109375 -5.09375 Z M 3.71875 -12.34375 C 3.71875 -11.75 3.894531 -11.269531 4.25 -10.90625 C 4.601562 -10.550781 5.207031 -10.21875 6.0625 -9.90625 L 6.0625 -14.421875 C 5.300781 -14.296875 4.71875 -14.050781 4.3125 -13.6875 C 3.914062 -13.320312 3.71875 -12.875 3.71875 -12.34375 Z M 3.71875 -12.34375 "/></g></g></g><g fill="#000000" fill-opacity="1"><g transform="translate(357.011373, 739.871067)"><g><path d="M 11.75 -13.046875 C 11.75 -11.960938 11.441406 -11.070312 10.828125 -10.375 C 10.210938 -9.6875 9.347656 -9.222656 8.234375 -8.984375 L 8.234375 -8.890625 C 9.597656 -8.722656 10.609375 -8.285156 11.265625 -7.578125 C 11.929688 -6.878906 12.265625 -5.960938 12.265625 -4.828125 C 12.265625 -3.203125 11.703125 -1.953125 10.578125 -1.078125 C 9.453125 -0.203125 7.847656 0.234375 5.765625 0.234375 C 4.859375 0.234375 4.03125 0.164062 3.28125 0.03125 C 2.53125 -0.101562 1.800781 -0.34375 1.09375 -0.6875 L 1.09375 -2.53125 C 1.832031 -2.164062 2.617188 -1.882812 3.453125 -1.6875 C 4.296875 -1.5 5.09375 -1.40625 5.84375 -1.40625 C 8.789062 -1.40625 10.265625 -2.5625 10.265625 -4.875 C 10.265625 -6.945312 8.632812 -7.984375 5.375 -7.984375 L 3.703125 -7.984375 L 3.703125 -9.65625 L 5.40625 -9.65625 C 6.738281 -9.65625 7.789062 -9.945312 8.5625 -10.53125 C 9.34375 -11.125 9.734375 -11.941406 9.734375 -12.984375 C 9.734375 -13.816406 9.445312 -14.46875 8.875 -14.9375 C 8.300781 -15.414062 7.523438 -15.65625 6.546875 -15.65625 C 5.796875 -15.65625 5.085938 -15.550781 4.421875 -15.34375 C 3.765625 -15.144531 3.015625 -14.773438 2.171875 -14.234375 L 1.1875 -15.53125 C 1.882812 -16.082031 2.691406 -16.515625 3.609375 -16.828125 C 4.523438 -17.148438 5.488281 -17.3125 6.5 -17.3125 C 8.15625 -17.3125 9.441406 -16.929688 10.359375 -16.171875 C 11.285156 -15.410156 11.75 -14.367188 11.75 -13.046875 Z M 11.75 -13.046875 "/></g></g></g><g fill="#000000" fill-opacity="1"><g transform="translate(370.679633, 739.871067)"><g><path d="M 4.078125 -2.78125 L 4.265625 -2.515625 C 4.054688 -1.734375 3.757812 -0.828125 3.375 0.203125 C 3 1.234375 2.601562 2.191406 2.1875 3.078125 L 0.734375 3.078125 C 0.941406 2.273438 1.171875 1.273438 1.421875 0.078125 C 1.679688 -1.109375 1.863281 -2.0625 1.96875 -2.78125 Z M 4.078125 -2.78125 "/></g></g></g><g fill="#000000" fill-opacity="1"><g transform="translate(376.539126, 739.871067)"><g><path d="M 6.8125 -17.3125 C 8.375 -17.3125 9.609375 -16.945312 10.515625 -16.21875 C 11.429688 -15.5 11.890625 -14.5 11.890625 -13.21875 C 11.890625 -12.382812 11.625 -11.617188 11.09375 -10.921875 C 10.570312 -10.234375 9.742188 -9.601562 8.609375 -9.03125 C 9.992188 -8.375 10.976562 -7.679688 11.5625 -6.953125 C 12.144531 -6.222656 12.4375 -5.378906 12.4375 -4.421875 C 12.4375 -3.003906 11.941406 -1.875 10.953125 -1.03125 C 9.960938 -0.1875 8.609375 0.234375 6.890625 0.234375 C 5.066406 0.234375 3.664062 -0.160156 2.6875 -0.953125 C 1.707031 -1.753906 1.21875 -2.890625 1.21875 -4.359375 C 1.21875 -6.304688 2.40625 -7.828125 4.78125 -8.921875 C 3.707031 -9.523438 2.9375 -10.175781 2.46875 -10.875 C 2.007812 -11.582031 1.78125 -12.375 1.78125 -13.25 C 1.78125 -14.488281 2.234375 -15.472656 3.140625 -16.203125 C 4.054688 -16.941406 5.28125 -17.3125 6.8125 -17.3125 Z M 3.125 -4.3125 C 3.125 -3.375 3.445312 -2.644531 4.09375 -2.125 C 4.75 -1.601562 5.664062 -1.34375 6.84375 -1.34375 C 8 -1.34375 8.898438 -1.613281 9.546875 -2.15625 C 10.191406 -2.707031 10.515625 -3.457031 10.515625 -4.40625 C 10.515625 -5.15625 10.210938 -5.820312 9.609375 -6.40625 C 9.003906 -7 7.945312 -7.570312 6.4375 -8.125 C 5.269531 -7.625 4.425781 -7.070312 3.90625 -6.46875 C 3.382812 -5.863281 3.125 -5.144531 3.125 -4.3125 Z M 6.796875 -15.734375 C 5.816406 -15.734375 5.050781 -15.5 4.5 -15.03125 C 3.945312 -14.5625 3.671875 -13.941406 3.671875 -13.171875 C 3.671875 -12.453125 3.898438 -11.832031 4.359375 -11.3125 C 4.816406 -10.800781 5.664062 -10.289062 6.90625 -9.78125 C 8.019531 -10.25 8.804688 -10.75 9.265625 -11.28125 C 9.734375 -11.820312 9.96875 -12.453125 9.96875 -13.171875 C 9.96875 -13.953125 9.6875 -14.570312 9.125 -15.03125 C 8.5625 -15.5 7.785156 -15.734375 6.796875 -15.734375 Z M 6.796875 -15.734375 "/></g></g></g><g fill="#000000" fill-opacity="1"><g transform="translate(390.207386, 739.871067)"><g><path d="M 12.484375 -8.5625 C 12.484375 -5.601562 12.015625 -3.394531 11.078125 -1.9375 C 10.148438 -0.488281 8.726562 0.234375 6.8125 0.234375 C 4.976562 0.234375 3.582031 -0.507812 2.625 -2 C 1.664062 -3.488281 1.1875 -5.675781 1.1875 -8.5625 C 1.1875 -11.53125 1.648438 -13.734375 2.578125 -15.171875 C 3.503906 -16.609375 4.914062 -17.328125 6.8125 -17.328125 C 8.664062 -17.328125 10.070312 -16.578125 11.03125 -15.078125 C 12 -13.578125 12.484375 -11.40625 12.484375 -8.5625 Z M 3.15625 -8.5625 C 3.15625 -6.070312 3.445312 -4.257812 4.03125 -3.125 C 4.613281 -2 5.539062 -1.4375 6.8125 -1.4375 C 8.101562 -1.4375 9.039062 -2.007812 9.625 -3.15625 C 10.207031 -4.300781 10.5 -6.101562 10.5 -8.5625 C 10.5 -11.007812 10.207031 -12.800781 9.625 -13.9375 C 9.039062 -15.082031 8.101562 -15.65625 6.8125 -15.65625 C 5.539062 -15.65625 4.613281 -15.09375 4.03125 -13.96875 C 3.445312 -12.84375 3.15625 -11.039062 3.15625 -8.5625 Z M 3.15625 -8.5625 "/></g></g></g><g fill="#000000" fill-opacity="1"><g transform="translate(403.875646, 739.871067)"><g><path d="M 12.484375 -8.5625 C 12.484375 -5.601562 12.015625 -3.394531 11.078125 -1.9375 C 10.148438 -0.488281 8.726562 0.234375 6.8125 0.234375 C 4.976562 0.234375 3.582031 -0.507812 2.625 -2 C 1.664062 -3.488281 1.1875 -5.675781 1.1875 -8.5625 C 1.1875 -11.53125 1.648438 -13.734375 2.578125 -15.171875 C 3.503906 -16.609375 4.914062 -17.328125 6.8125 -17.328125 C 8.664062 -17.328125 10.070312 -16.578125 11.03125 -15.078125 C 12 -13.578125 12.484375 -11.40625 12.484375 -8.5625 Z M 3.15625 -8.5625 C 3.15625 -6.070312 3.445312 -4.257812 4.03125 -3.125 C 4.613281 -2 5.539062 -1.4375 6.8125 -1.4375 C 8.101562 -1.4375 9.039062 -2.007812 9.625 -3.15625 C 10.207031 -4.300781 10.5 -6.101562 10.5 -8.5625 C 10.5 -11.007812 10.207031 -12.800781 9.625 -13.9375 C 9.039062 -15.082031 8.101562 -15.65625 6.8125 -15.65625 C 5.539062 -15.65625 4.613281 -15.09375 4.03125 -13.96875 C 3.445312 -12.84375 3.15625 -11.039062 3.15625 -8.5625 Z M 3.15625 -8.5625 "/></g></g></g><g fill="#000000" fill-opacity="1"><g transform="translate(417.543906, 739.871067)"><g><path d="M 1.78125 -1.234375 C 1.78125 -1.753906 1.894531 -2.148438 2.125 -2.421875 C 2.363281 -2.691406 2.707031 -2.828125 3.15625 -2.828125 C 3.601562 -2.828125 3.953125 -2.691406 4.203125 -2.421875 C 4.460938 -2.148438 4.59375 -1.753906 4.59375 -1.234375 C 4.59375 -0.734375 4.460938 -0.34375 4.203125 -0.0625 C 3.941406 0.207031 3.59375 0.34375 3.15625 0.34375 C 2.757812 0.34375 2.429688 0.222656 2.171875 -0.015625 C 1.910156 -0.265625 1.78125 -0.671875 1.78125 -1.234375 Z M 1.78125 -1.234375 "/></g></g></g><g fill="#000000" fill-opacity="1"><g transform="translate(423.905308, 739.871067)"><g><path d="M 12.484375 -8.5625 C 12.484375 -5.601562 12.015625 -3.394531 11.078125 -1.9375 C 10.148438 -0.488281 8.726562 0.234375 6.8125 0.234375 C 4.976562 0.234375 3.582031 -0.507812 2.625 -2 C 1.664062 -3.488281 1.1875 -5.675781 1.1875 -8.5625 C 1.1875 -11.53125 1.648438 -13.734375 2.578125 -15.171875 C 3.503906 -16.609375 4.914062 -17.328125 6.8125 -17.328125 C 8.664062 -17.328125 10.070312 -16.578125 11.03125 -15.078125 C 12 -13.578125 12.484375 -11.40625 12.484375 -8.5625 Z M 3.15625 -8.5625 C 3.15625 -6.070312 3.445312 -4.257812 4.03125 -3.125 C 4.613281 -2 5.539062 -1.4375 6.8125 -1.4375 C 8.101562 -1.4375 9.039062 -2.007812 9.625 -3.15625 C 10.207031 -4.300781 10.5 -6.101562 10.5 -8.5625 C 10.5 -11.007812 10.207031 -12.800781 9.625 -13.9375 C 9.039062 -15.082031 8.101562 -15.65625 6.8125 -15.65625 C 5.539062 -15.65625 4.613281 -15.09375 4.03125 -13.96875 C 3.445312 -12.84375 3.15625 -11.039062 3.15625 -8.5625 Z M 3.15625 -8.5625 "/></g></g></g><g fill="#000000" fill-opacity="1"><g transform="translate(437.573569, 739.871067)"><g><path d="M 12.484375 -8.5625 C 12.484375 -5.601562 12.015625 -3.394531 11.078125 -1.9375 C 10.148438 -0.488281 8.726562 0.234375 6.8125 0.234375 C 4.976562 0.234375 3.582031 -0.507812 2.625 -2 C 1.664062 -3.488281 1.1875 -5.675781 1.1875 -8.5625 C 1.1875 -11.53125 1.648438 -13.734375 2.578125 -15.171875 C 3.503906 -16.609375 4.914062 -17.328125 6.8125 -17.328125 C 8.664062 -17.328125 10.070312 -16.578125 11.03125 -15.078125 C 12 -13.578125 12.484375 -11.40625 12.484375 -8.5625 Z M 3.15625 -8.5625 C 3.15625 -6.070312 3.445312 -4.257812 4.03125 -3.125 C 4.613281 -2 5.539062 -1.4375 6.8125 -1.4375 C 8.101562 -1.4375 9.039062 -2.007812 9.625 -3.15625 C 10.207031 -4.300781 10.5 -6.101562 10.5 -8.5625 C 10.5 -11.007812 10.207031 -12.800781 9.625 -13.9375 C 9.039062 -15.082031 8.101562 -15.65625 6.8125 -15.65625 C 5.539062 -15.65625 4.613281 -15.09375 4.03125 -13.96875 C 3.445312 -12.84375 3.15625 -11.039062 3.15625 -8.5625 Z M 3.15625 -8.5625 "/></g></g></g><g fill="#000000" fill-opacity="1"><g transform="translate(330.825208, 24.66881)"><g><path d="M 11.96875 -4.546875 C 11.96875 -3.035156 11.421875 -1.859375 10.328125 -1.015625 C 9.242188 -0.179688 7.769531 0.234375 5.90625 0.234375 C 3.882812 0.234375 2.328125 -0.0234375 1.234375 -0.546875 L 1.234375 -2.46875 C 1.929688 -2.164062 2.691406 -1.925781 3.515625 -1.75 C 4.347656 -1.582031 5.171875 -1.5 5.984375 -1.5 C 7.304688 -1.5 8.300781 -1.75 8.96875 -2.25 C 9.632812 -2.757812 9.96875 -3.460938 9.96875 -4.359375 C 9.96875 -4.941406 9.847656 -5.421875 9.609375 -5.796875 C 9.367188 -6.179688 8.972656 -6.53125 8.421875 -6.84375 C 7.867188 -7.164062 7.023438 -7.53125 5.890625 -7.9375 C 4.296875 -8.507812 3.15625 -9.179688 2.46875 -9.953125 C 1.789062 -10.734375 1.453125 -11.75 1.453125 -13 C 1.453125 -14.3125 1.945312 -15.359375 2.9375 -16.140625 C 3.925781 -16.921875 5.234375 -17.3125 6.859375 -17.3125 C 8.554688 -17.3125 10.117188 -17 11.546875 -16.375 L 10.921875 -14.65625 C 9.515625 -15.238281 8.144531 -15.53125 6.8125 -15.53125 C 5.757812 -15.53125 4.9375 -15.304688 4.34375 -14.859375 C 3.757812 -14.410156 3.46875 -13.785156 3.46875 -12.984375 C 3.46875 -12.390625 3.578125 -11.898438 3.796875 -11.515625 C 4.015625 -11.140625 4.378906 -10.796875 4.890625 -10.484375 C 5.410156 -10.171875 6.203125 -9.820312 7.265625 -9.4375 C 9.054688 -8.800781 10.285156 -8.117188 10.953125 -7.390625 C 11.628906 -6.660156 11.96875 -5.710938 11.96875 -4.546875 Z M 11.96875 -4.546875 "/></g></g></g><g fill="#000000" fill-opacity="1"><g transform="translate(343.94487, 24.66881)"><g><path d="M 9.921875 0 L 9.53125 -1.828125 L 9.4375 -1.828125 C 8.800781 -1.023438 8.164062 -0.476562 7.53125 -0.1875 C 6.894531 0.09375 6.101562 0.234375 5.15625 0.234375 C 3.882812 0.234375 2.890625 -0.09375 2.171875 -0.75 C 1.453125 -1.40625 1.09375 -2.332031 1.09375 -3.53125 C 1.09375 -6.113281 3.160156 -7.46875 7.296875 -7.59375 L 9.46875 -7.671875 L 9.46875 -8.46875 C 9.46875 -9.46875 9.25 -10.207031 8.8125 -10.6875 C 8.382812 -11.164062 7.695312 -11.40625 6.75 -11.40625 C 5.675781 -11.40625 4.46875 -11.078125 3.125 -10.421875 L 2.53125 -11.90625 C 3.164062 -12.25 3.859375 -12.515625 4.609375 -12.703125 C 5.359375 -12.898438 6.109375 -13 6.859375 -13 C 8.390625 -13 9.519531 -12.660156 10.25 -11.984375 C 10.988281 -11.304688 11.359375 -10.222656 11.359375 -8.734375 L 11.359375 0 Z M 5.546875 -1.359375 C 6.753906 -1.359375 7.703125 -1.6875 8.390625 -2.34375 C 9.078125 -3.007812 9.421875 -3.941406 9.421875 -5.140625 L 9.421875 -6.296875 L 7.484375 -6.203125 C 5.941406 -6.148438 4.828125 -5.910156 4.140625 -5.484375 C 3.460938 -5.066406 3.125 -4.410156 3.125 -3.515625 C 3.125 -2.816406 3.335938 -2.28125 3.765625 -1.90625 C 4.191406 -1.539062 4.785156 -1.359375 5.546875 -1.359375 Z M 5.546875 -1.359375 "/></g></g></g><g fill="#000000" fill-opacity="1"><g transform="translate(357.239617, 24.66881)"><g><path d="M 3.984375 0 L 2.046875 0 L 2.046875 -18.15625 L 3.984375 -18.15625 Z M 3.984375 0 "/></g></g></g><g fill="#000000" fill-opacity="1"><g transform="translate(363.285867, 24.66881)"><g><path d="M 7.453125 0.234375 C 5.566406 0.234375 4.078125 -0.335938 2.984375 -1.484375 C 1.890625 -2.640625 1.34375 -4.242188 1.34375 -6.296875 C 1.34375 -8.359375 1.847656 -9.992188 2.859375 -11.203125 C 3.878906 -12.421875 5.242188 -13.03125 6.953125 -13.03125 C 8.554688 -13.03125 9.820312 -12.5 10.75 -11.4375 C 11.6875 -10.382812 12.15625 -8.992188 12.15625 -7.265625 L 12.15625 -6.046875 L 3.34375 -6.046875 C 3.382812 -4.546875 3.765625 -3.40625 4.484375 -2.625 C 5.203125 -1.84375 6.21875 -1.453125 7.53125 -1.453125 C 8.90625 -1.453125 10.265625 -1.742188 11.609375 -2.328125 L 11.609375 -0.59375 C 10.929688 -0.300781 10.285156 -0.09375 9.671875 0.03125 C 9.054688 0.164062 8.316406 0.234375 7.453125 0.234375 Z M 6.9375 -11.40625 C 5.90625 -11.40625 5.082031 -11.066406 4.46875 -10.390625 C 3.863281 -9.722656 3.503906 -8.800781 3.390625 -7.625 L 10.078125 -7.625 C 10.078125 -8.84375 9.804688 -9.773438 9.265625 -10.421875 C 8.722656 -11.078125 7.945312 -11.40625 6.9375 -11.40625 Z M 6.9375 -11.40625 "/></g></g></g><g fill="#000000" fill-opacity="1"><g transform="translate(376.697336, 24.66881)"><g><path d="M 10.3125 -3.484375 C 10.3125 -2.296875 9.863281 -1.378906 8.96875 -0.734375 C 8.082031 -0.0859375 6.835938 0.234375 5.234375 0.234375 C 3.546875 0.234375 2.222656 -0.0351562 1.265625 -0.578125 L 1.265625 -2.375 C 1.878906 -2.0625 2.539062 -1.8125 3.25 -1.625 C 3.957031 -1.445312 4.632812 -1.359375 5.28125 -1.359375 C 6.300781 -1.359375 7.082031 -1.519531 7.625 -1.84375 C 8.164062 -2.164062 8.4375 -2.660156 8.4375 -3.328125 C 8.4375 -3.828125 8.21875 -4.253906 7.78125 -4.609375 C 7.351562 -4.960938 6.515625 -5.378906 5.265625 -5.859375 C 4.078125 -6.304688 3.226562 -6.691406 2.71875 -7.015625 C 2.21875 -7.347656 1.84375 -7.722656 1.59375 -8.140625 C 1.351562 -8.566406 1.234375 -9.070312 1.234375 -9.65625 C 1.234375 -10.695312 1.65625 -11.519531 2.5 -12.125 C 3.351562 -12.726562 4.519531 -13.03125 6 -13.03125 C 7.375 -13.03125 8.71875 -12.75 10.03125 -12.1875 L 9.34375 -10.609375 C 8.0625 -11.140625 6.898438 -11.40625 5.859375 -11.40625 C 4.941406 -11.40625 4.25 -11.257812 3.78125 -10.96875 C 3.3125 -10.6875 3.078125 -10.289062 3.078125 -9.78125 C 3.078125 -9.4375 3.164062 -9.144531 3.34375 -8.90625 C 3.519531 -8.664062 3.800781 -8.4375 4.1875 -8.21875 C 4.582031 -8 5.332031 -7.679688 6.4375 -7.265625 C 7.945312 -6.710938 8.96875 -6.15625 9.5 -5.59375 C 10.039062 -5.039062 10.3125 -4.335938 10.3125 -3.484375 Z M 10.3125 -3.484375 "/></g></g></g><g fill="#000000" fill-opacity="1"><g transform="translate(314.316463, 53.622221)"><g><path d="M 4.328125 -7.09375 L 4.328125 0 L 2.34375 0 L 2.34375 -17.0625 L 7.03125 -17.0625 C 9.125 -17.0625 10.671875 -16.660156 11.671875 -15.859375 C 12.671875 -15.054688 13.171875 -13.851562 13.171875 -12.25 C 13.171875 -9.988281 12.023438 -8.460938 9.734375 -7.671875 L 14.375 0 L 12.015625 0 L 7.890625 -7.09375 Z M 4.328125 -8.796875 L 7.046875 -8.796875 C 8.453125 -8.796875 9.476562 -9.070312 10.125 -9.625 C 10.78125 -10.1875 11.109375 -11.023438 11.109375 -12.140625 C 11.109375 -13.265625 10.773438 -14.078125 10.109375 -14.578125 C 9.441406 -15.078125 8.375 -15.328125 6.90625 -15.328125 L 4.328125 -15.328125 Z M 4.328125 -8.796875 "/></g></g></g><g fill="#000000" fill-opacity="1"><g transform="translate(329.093592, 53.622221)"><g><path d="M 12.09375 -5.234375 C 12.09375 -4.179688 11.695312 -3.3125 10.90625 -2.625 C 10.113281 -1.9375 9.003906 -1.5 7.578125 -1.3125 L 7.578125 1.390625 L 6.0625 1.390625 L 6.0625 -1.21875 C 5.195312 -1.21875 4.351562 -1.285156 3.53125 -1.421875 C 2.71875 -1.554688 2.050781 -1.742188 1.53125 -1.984375 L 1.53125 -3.8125 C 2.175781 -3.519531 2.921875 -3.28125 3.765625 -3.09375 C 4.609375 -2.914062 5.375 -2.828125 6.0625 -2.828125 L 6.0625 -7.96875 C 4.46875 -8.46875 3.347656 -9.050781 2.703125 -9.71875 C 2.066406 -10.394531 1.75 -11.257812 1.75 -12.3125 C 1.75 -13.332031 2.144531 -14.171875 2.9375 -14.828125 C 3.726562 -15.484375 4.769531 -15.878906 6.0625 -16.015625 L 6.0625 -18.140625 L 7.578125 -18.140625 L 7.578125 -16.03125 C 9.003906 -16 10.382812 -15.710938 11.71875 -15.171875 L 11.109375 -13.640625 C 9.953125 -14.097656 8.773438 -14.375 7.578125 -14.46875 L 7.578125 -9.390625 C 8.796875 -9.003906 9.707031 -8.625 10.3125 -8.25 C 10.925781 -7.882812 11.375 -7.460938 11.65625 -6.984375 C 11.945312 -6.503906 12.09375 -5.921875 12.09375 -5.234375 Z M 10.109375 -5.09375 C 10.109375 -5.65625 9.929688 -6.109375 9.578125 -6.453125 C 9.234375 -6.796875 8.566406 -7.140625 7.578125 -7.484375 L 7.578125 -2.9375 C 9.265625 -3.175781 10.109375 -3.894531 10.109375 -5.09375 Z M 3.71875 -12.34375 C 3.71875 -11.75 3.894531 -11.269531 4.25 -10.90625 C 4.601562 -10.550781 5.207031 -10.21875 6.0625 -9.90625 L 6.0625 -14.421875 C 5.300781 -14.296875 4.71875 -14.050781 4.3125 -13.6875 C 3.914062 -13.320312 3.71875 -12.875 3.71875 -12.34375 Z M 3.71875 -12.34375 "/></g></g></g><g fill="#000000" fill-opacity="1"><g transform="translate(342.761852, 53.622221)"><g><path d="M 6.5 -10.421875 C 8.300781 -10.421875 9.71875 -9.972656 10.75 -9.078125 C 11.78125 -8.191406 12.296875 -6.972656 12.296875 -5.421875 C 12.296875 -3.660156 11.734375 -2.273438 10.609375 -1.265625 C 9.484375 -0.265625 7.929688 0.234375 5.953125 0.234375 C 4.023438 0.234375 2.554688 -0.0703125 1.546875 -0.6875 L 1.546875 -2.5625 C 2.097656 -2.207031 2.773438 -1.929688 3.578125 -1.734375 C 4.390625 -1.535156 5.191406 -1.4375 5.984375 -1.4375 C 7.347656 -1.4375 8.410156 -1.757812 9.171875 -2.40625 C 9.929688 -3.050781 10.3125 -3.984375 10.3125 -5.203125 C 10.3125 -7.585938 8.851562 -8.78125 5.9375 -8.78125 C 5.195312 -8.78125 4.207031 -8.664062 2.96875 -8.4375 L 1.96875 -9.078125 L 2.609375 -17.0625 L 11.09375 -17.0625 L 11.09375 -15.28125 L 4.265625 -15.28125 L 3.828125 -10.15625 C 4.722656 -10.332031 5.613281 -10.421875 6.5 -10.421875 Z M 6.5 -10.421875 "/></g></g></g><g fill="#000000" fill-opacity="1"><g transform="translate(356.430112, 53.622221)"><g><path d="M 1.359375 -7.296875 C 1.359375 -10.648438 2.007812 -13.15625 3.3125 -14.8125 C 4.625 -16.476562 6.554688 -17.3125 9.109375 -17.3125 C 9.984375 -17.3125 10.675781 -17.238281 11.1875 -17.09375 L 11.1875 -15.421875 C 10.582031 -15.617188 9.894531 -15.71875 9.125 -15.71875 C 7.300781 -15.71875 5.90625 -15.144531 4.9375 -14 C 3.96875 -12.863281 3.4375 -11.070312 3.34375 -8.625 L 3.484375 -8.625 C 4.347656 -9.96875 5.703125 -10.640625 7.546875 -10.640625 C 9.085938 -10.640625 10.296875 -10.175781 11.171875 -9.25 C 12.054688 -8.320312 12.5 -7.0625 12.5 -5.46875 C 12.5 -3.695312 12.015625 -2.300781 11.046875 -1.28125 C 10.078125 -0.269531 8.769531 0.234375 7.125 0.234375 C 5.351562 0.234375 3.945312 -0.425781 2.90625 -1.75 C 1.875 -3.082031 1.359375 -4.929688 1.359375 -7.296875 Z M 7.09375 -1.40625 C 8.195312 -1.40625 9.054688 -1.753906 9.671875 -2.453125 C 10.285156 -3.148438 10.59375 -4.15625 10.59375 -5.46875 C 10.59375 -6.601562 10.304688 -7.492188 9.734375 -8.140625 C 9.171875 -8.785156 8.320312 -9.109375 7.1875 -9.109375 C 6.488281 -9.109375 5.847656 -8.960938 5.265625 -8.671875 C 4.679688 -8.378906 4.210938 -7.976562 3.859375 -7.46875 C 3.515625 -6.96875 3.34375 -6.445312 3.34375 -5.90625 C 3.34375 -5.101562 3.5 -4.351562 3.8125 -3.65625 C 4.125 -2.96875 4.566406 -2.421875 5.140625 -2.015625 C 5.710938 -1.609375 6.363281 -1.40625 7.09375 -1.40625 Z M 7.09375 -1.40625 "/></g></g></g><g fill="#000000" fill-opacity="1"><g transform="translate(370.098372, 53.622221)"><g><path d="M 1.78125 -1.234375 C 1.78125 -1.753906 1.894531 -2.148438 2.125 -2.421875 C 2.363281 -2.691406 2.707031 -2.828125 3.15625 -2.828125 C 3.601562 -2.828125 3.953125 -2.691406 4.203125 -2.421875 C 4.460938 -2.148438 4.59375 -1.753906 4.59375 -1.234375 C 4.59375 -0.734375 4.460938 -0.34375 4.203125 -0.0625 C 3.941406 0.207031 3.59375 0.34375 3.15625 0.34375 C 2.757812 0.34375 2.429688 0.222656 2.171875 -0.015625 C 1.910156 -0.265625 1.78125 -0.671875 1.78125 -1.234375 Z M 1.78125 -1.234375 "/></g></g></g><g fill="#000000" fill-opacity="1"><g transform="translate(376.459774, 53.622221)"><g><path d="M 12.484375 -8.5625 C 12.484375 -5.601562 12.015625 -3.394531 11.078125 -1.9375 C 10.148438 -0.488281 8.726562 0.234375 6.8125 0.234375 C 4.976562 0.234375 3.582031 -0.507812 2.625 -2 C 1.664062 -3.488281 1.1875 -5.675781 1.1875 -8.5625 C 1.1875 -11.53125 1.648438 -13.734375 2.578125 -15.171875 C 3.503906 -16.609375 4.914062 -17.328125 6.8125 -17.328125 C 8.664062 -17.328125 10.070312 -16.578125 11.03125 -15.078125 C 12 -13.578125 12.484375 -11.40625 12.484375 -8.5625 Z M 3.15625 -8.5625 C 3.15625 -6.070312 3.445312 -4.257812 4.03125 -3.125 C 4.613281 -2 5.539062 -1.4375 6.8125 -1.4375 C 8.101562 -1.4375 9.039062 -2.007812 9.625 -3.15625 C 10.207031 -4.300781 10.5 -6.101562 10.5 -8.5625 C 10.5 -11.007812 10.207031 -12.800781 9.625 -13.9375 C 9.039062 -15.082031 8.101562 -15.65625 6.8125 -15.65625 C 5.539062 -15.65625 4.613281 -15.09375 4.03125 -13.96875 C 3.445312 -12.84375 3.15625 -11.039062 3.15625 -8.5625 Z M 3.15625 -8.5625 "/></g></g></g><g fill="#000000" fill-opacity="1"><g transform="translate(390.128034, 53.622221)"><g><path d="M 12.484375 -8.5625 C 12.484375 -5.601562 12.015625 -3.394531 11.078125 -1.9375 C 10.148438 -0.488281 8.726562 0.234375 6.8125 0.234375 C 4.976562 0.234375 3.582031 -0.507812 2.625 -2 C 1.664062 -3.488281 1.1875 -5.675781 1.1875 -8.5625 C 1.1875 -11.53125 1.648438 -13.734375 2.578125 -15.171875 C 3.503906 -16.609375 4.914062 -17.328125 6.8125 -17.328125 C 8.664062 -17.328125 10.070312 -16.578125 11.03125 -15.078125 C 12 -13.578125 12.484375 -11.40625 12.484375 -8.5625 Z M 3.15625 -8.5625 C 3.15625 -6.070312 3.445312 -4.257812 4.03125 -3.125 C 4.613281 -2 5.539062 -1.4375 6.8125 -1.4375 C 8.101562 -1.4375 9.039062 -2.007812 9.625 -3.15625 C 10.207031 -4.300781 10.5 -6.101562 10.5 -8.5625 C 10.5 -11.007812 10.207031 -12.800781 9.625 -13.9375 C 9.039062 -15.082031 8.101562 -15.65625 6.8125 -15.65625 C 5.539062 -15.65625 4.613281 -15.09375 4.03125 -13.96875 C 3.445312 -12.84375 3.15625 -11.039062 3.15625 -8.5625 Z M 3.15625 -8.5625 "/></g></g></g></svg>